<svg height="120px" viewBox="0 0 64 64" width="120px" xmlns="http://www.w3.org/2000/svg">
    <linearGradient id="linear-gradient">
        <stop offset="0%" stop-color="current"/>
        <stop offset="100%" stop-color="current"/>
    </linearGradient>

    <g id="API">
        <path fill="#FFB800" d="m31 20h4v2h-4z" />
        <path fill="#FFB800" d="m21.9 20-.34 3h2.88l-.34-3z"/>
        <path fill="#FFB800" d="m58 54a4 4 0 0 0 -3.86 3h-3.14a1 1 0 0 1 -1-1v-7h2.14a4 4 0 1 0 0-2h-2.14v-15h3a9 9 0 0 0 0-18h-2.06a8.977 8.977 0 0 0 -14.18-6.3 14.982 14.982 0 0 0 -26.45 6.34 8.993 8.993 0 0 0 .69 17.96h3v13h-2.14a4 4 0 1 0 0 2h2.14v9a1 1 0 0 1 -1 1h-3.14a4 4 0 1 0 0 2h3.14a3.009 3.009 0 0 0 3-3v-9h8a3.009 3.009 0 0 0 3-3v-12h4v22.14a4 4 0 1 0 2 0v-22.14h4v14a3.009 3.009 0 0 0 3 3h8v7a3.009 3.009 0 0 0 3 3h3.14a3.994 3.994 0 1 0 3.86-5zm-33-10a1 1 0 0 1 -1 1h-8v-13h9zm.01-15.89-.35-3.11h-3.32l-.35 3.11-1.98-.22 1-9a.989.989 0 0 1 .99-.89h4a.989.989 0 0 1 .99.89l1 9zm11.99-5.11a1 1 0 0 1 -1 1h-5v4h-2v-9a1 1 0 0 1 1-1h6a1 1 0 0 1 1 1zm2 3h2v-6h-2v-2h6v2h-2v6h2v2h-6zm9 21h-8a1 1 0 0 1 -1-1v-14h9z"/>
    </g>
</svg>