<?xml version="1.0" encoding="iso-8859-1"?>
<!-- Generator: Adobe Illustrator 19.0.0, SVG Export Plug-In . SVG Version: 6.00 Build 0)  -->
<svg version="1.1" id="Layer_1" xmlns="http://www.w3.org/2000/svg" xmlns:xlink="http://www.w3.org/1999/xlink" x="0px" y="0px"
	 viewBox="0 0 512 512" style="enable-background:new 0 0 512 512;" xml:space="preserve">

	<linearGradient id="linear-gradient">
        <stop offset="0%" stop-color="current"/>
		<stop offset="100%" stop-color="current"/>
    </linearGradient>

	<g>
	<g>
		<g>
			<path fill="#FFB800" d="M435.2,307.2c14.114,0,25.6,11.486,25.6,25.6c0,14.114-11.486,25.6-25.6,25.6s-25.6-11.486-25.6-25.6
				c0-4.71-3.823-8.533-8.533-8.533s-8.533,3.823-8.533,8.533c0,23.526,19.14,42.667,42.667,42.667
				c23.526,0,42.667-19.14,42.667-42.667c0-23.526-19.14-42.667-42.667-42.667c-14.114,0-25.6-11.486-25.6-25.6
				s11.486-25.6,25.6-25.6s25.6,11.486,25.6,25.6c0,4.71,3.823,8.533,8.533,8.533s8.533-3.823,8.533-8.533
				c0-23.526-19.14-42.667-42.667-42.667c-23.526,0-42.667,19.14-42.667,42.667C392.533,288.06,411.674,307.2,435.2,307.2z"/>
			<path fill="#FFB800" d="M503.467,187.733H409.6v-68.267H298.667c-4.71,0-8.533-3.823-8.533-8.533V0H8.533C3.823,0,0,3.823,0,8.533v494.933
				C0,508.177,3.823,512,8.533,512h392.533c4.71,0,8.533-3.823,8.533-8.533V409.6h93.867c4.71,0,8.533-3.823,8.533-8.533v-204.8
				C512,191.556,508.177,187.733,503.467,187.733z M494.933,392.533h-93.867H238.933V204.8h162.133h93.867V392.533z"/>
			<path fill="#FFB800" d="M366.933,221.867h-102.4c-4.71,0-8.533,3.823-8.533,8.533s3.823,8.533,8.533,8.533H307.2v128
				c0,4.71,3.823,8.533,8.533,8.533s8.533-3.823,8.533-8.533v-128h42.667c4.71,0,8.533-3.823,8.533-8.533
				S371.644,221.867,366.933,221.867z"/>
			<polygon fill="#FFB800" points="307.2,5 307.2,102.399 404.599,102.399 			"/>
		</g>
	</g>
</g>
<g>
</g>
<g>
</g>
<g>
</g>
<g>
</g>
<g>
</g>
<g>
</g>
<g>
</g>
<g>
</g>
<g>
</g>
<g>
</g>
<g>
</g>
<g>
</g>
<g>
</g>
<g>
</g>
<g>
</g>
</svg>
